<svg width="95" height="35" viewBox="0 0 818 330" fill="none" xmlns="http://www.w3.org/2000/svg">
<g filter="url(#filter0_d)">
<path fill-rule="evenodd" clip-rule="evenodd" d="M714.568 55.1561H751.465V94.2818H714.568V55.1561ZM714.568 136.118H752.126V171.882H714.568V136.118ZM714.568 212.755V249.181H752.126V212.755H714.568ZM676.878 54.3711C679.17 54.3711 681.506 54.4583 683.887 54.6328C686.267 54.8072 688.736 54.9816 691.293 55.1561V85.5093C689.529 85.4221 687.81 85.3785 686.135 85.3785C684.46 85.2913 682.432 85.2476 680.052 85.2476C674.145 85.2476 670.53 86.8612 669.208 90.0885C667.885 93.3157 667.312 98.3745 667.488 105.265V107.882H692.218V134.179H667.488V249.181H629.93V134.179H608.903V107.882H629.534V98.7234C629.534 83.5468 632.928 72.2516 639.717 64.8377C645.8 57.86 658.187 54.3711 676.878 54.3711ZM65.3711 249.181H105.838V56.3336H65.3711V249.181ZM257.26 114.816C247.827 107.053 235.66 103.172 220.76 103.172C208.858 103.172 199.028 106.05 191.27 111.807C186.95 115.034 182.365 120.311 177.516 127.637V106.835H141.148V249.181H178.706V171.99C178.706 163.18 179.94 155.941 182.409 150.272C187.17 139.543 195.942 134.179 208.726 134.179C219.129 134.179 226.183 137.842 229.885 145.169C231.913 149.181 232.927 154.938 232.927 162.439V249.181H271.543V153.15C271.543 135.269 266.782 122.491 257.26 114.816ZM359.619 103.172C368.347 103.172 376.106 105.091 382.894 108.928C389.683 112.679 395.193 117.912 399.425 124.628V56.5953H437.644V249.181H401.012V229.425C395.634 237.886 389.507 244.035 382.63 247.873C375.753 251.711 367.201 253.63 356.974 253.63C340.135 253.63 325.94 246.913 314.391 233.481C302.929 219.962 297.199 202.648 297.199 181.541C297.199 157.206 302.841 138.061 314.126 124.105C325.5 110.149 340.664 103.172 359.619 103.172ZM367.818 222.23C378.486 222.23 386.597 218.305 392.152 210.455C397.706 202.605 400.483 192.443 400.483 179.971C400.483 162.526 396.031 150.054 387.126 142.552C381.66 138.017 375.312 135.749 368.083 135.749C357.062 135.749 348.951 139.892 343.75 148.178C338.636 156.377 336.079 166.582 336.079 178.793C336.079 191.964 338.68 202.517 343.882 210.455C349.172 218.305 357.15 222.23 367.818 222.23ZM544.235 183.503C546.703 182.544 549.128 181.323 551.508 179.84V193.708C551.244 206.181 547.673 214.772 540.796 219.482C534.008 224.192 526.558 226.547 518.447 226.547C513.333 226.547 508.969 225.152 505.354 222.36C501.828 219.482 500.065 214.859 500.065 208.492C500.065 201.34 502.974 196.063 508.793 192.661C512.231 190.655 517.918 188.954 525.853 187.559L534.316 185.989C538.548 185.204 541.854 184.375 544.235 183.503ZM543.574 159.168C540.576 160.477 535.595 161.567 528.63 162.439L515.802 164.009C501.255 165.841 490.234 168.893 482.74 173.167C469.075 181.017 462.242 193.708 462.242 211.24C462.242 224.759 466.474 235.226 474.938 242.64C483.49 249.966 494.29 253.63 507.338 253.63C517.565 253.63 526.734 251.318 534.845 246.695C541.634 242.77 547.629 238.017 552.831 232.435C553.095 235.662 553.448 238.54 553.889 241.07C554.33 243.599 555.123 246.303 556.269 249.181H597.266V243.686C594.797 242.552 592.946 241.113 591.711 239.369C590.477 237.624 589.728 234.31 589.463 229.425C589.287 222.971 589.199 217.476 589.199 212.941V147.524C589.199 130.341 583.071 118.654 570.816 112.461C558.562 106.268 544.543 103.172 528.762 103.172C504.517 103.172 487.413 109.452 477.451 122.012C471.191 130.036 467.664 140.285 466.871 152.757H503.238C504.12 147.262 505.883 142.901 508.528 139.674C512.231 135.313 518.535 133.132 527.44 133.132C535.374 133.132 541.37 134.266 545.425 136.534C549.569 138.715 551.641 142.727 551.641 148.571C551.641 153.368 548.952 156.9 543.574 159.168Z" fill="#B0AAE2"/>
</g>
<path d="M24 261.225H793.496V294.321H24V261.225Z" fill="#3B3E54"/>
<g filter="url(#filter1_d)">
<path fill-rule="evenodd" clip-rule="evenodd" d="M792.835 13.785V94.7474H793.496V290.552H537.166C527.513 293.578 517.492 295 507.338 295C497.234 295 487.227 293.602 477.658 290.552H387.562C377.448 293.755 367.05 295 356.974 295C340.94 295 326.131 291.325 312.913 284.453V290.552H24V14.9625H147.209V65.464H193.398C202.371 62.9059 211.61 61.8007 220.76 61.8007C243.007 61.8007 265.06 67.7256 283.393 82.743C285.861 84.7439 288.139 86.8461 290.24 89.0347C308.632 71.1997 332.085 62.1595 358.054 61.8111V15.2242H479.015V70.8016C494.743 64.1823 512.065 61.8007 528.762 61.8007C542.047 61.8007 555.051 63.4399 567.532 66.9865V66.5106H592.595C595.752 56.1644 600.887 46.0993 608.887 37.2474C627.868 15.8566 657.094 13 676.878 13C680.219 13 683.565 13.1271 686.91 13.3723C688.783 13.5095 690.716 13.6471 692.711 13.785H792.835ZM437.644 56.5949H399.425V124.628C398.443 123.07 397.393 121.592 396.273 120.193C392.568 115.564 388.108 111.809 382.894 108.928C378.385 106.379 373.448 104.676 368.083 103.82C365.371 103.388 362.549 103.171 359.619 103.171C359.094 103.171 358.573 103.177 358.054 103.187C339.827 103.563 325.185 110.535 314.126 124.105C313.153 125.308 312.223 126.549 311.334 127.829C311.312 127.86 311.291 127.89 311.27 127.921C311.022 128.279 310.778 128.64 310.537 129.004C305.931 135.956 302.519 144.004 300.299 153.15C298.415 160.908 297.39 169.456 297.223 178.793C297.207 179.701 297.198 180.617 297.198 181.54C297.198 201.41 302.277 217.918 312.434 231.064C312.532 231.191 312.631 231.319 312.731 231.446C312.792 231.523 312.852 231.6 312.913 231.678C313.395 232.286 313.887 232.887 314.391 233.481C325.94 246.913 340.134 253.629 356.974 253.629C357.876 253.629 358.765 253.614 359.641 253.584C362.506 253.487 365.232 253.229 367.818 252.812C372.322 252.086 376.403 250.876 380.061 249.181C380.942 248.773 381.798 248.337 382.63 247.873C387.563 245.119 392.111 241.176 396.273 236.044C397.913 234.022 399.492 231.816 401.012 229.425V249.181H437.644V56.5949ZM397.337 158.087C397.008 157.126 396.654 156.194 396.273 155.291C394.081 150.089 391.032 145.842 387.126 142.552C384.54 140.407 381.758 138.769 378.777 137.638C375.457 136.379 371.892 135.749 368.083 135.749C368.085 135.749 368.08 135.749 368.083 135.749C367.967 135.749 367.846 135.749 367.731 135.75C364.822 135.774 362.118 136.089 359.619 136.697C352.834 138.345 347.561 142.146 343.799 148.099C343.782 148.125 343.766 148.152 343.749 148.178C343.74 148.193 343.73 148.208 343.721 148.223C338.626 156.414 336.079 166.604 336.079 178.793C336.079 179.722 336.092 180.638 336.118 181.54C336.436 192.639 338.709 201.771 342.937 208.936C342.982 209.012 343.027 209.089 343.073 209.165C343.335 209.602 343.605 210.032 343.881 210.454C347.192 215.367 351.556 218.743 356.974 220.581C360.212 221.68 363.827 222.229 367.818 222.229C367.985 222.229 368.151 222.228 368.317 222.226C374.212 222.158 379.314 220.873 383.623 218.372C386.933 216.45 389.776 213.811 392.151 210.454C393.758 208.184 395.132 205.721 396.273 203.064C396.779 201.888 397.239 200.673 397.654 199.42C399.54 193.722 400.483 187.239 400.483 179.97C400.483 171.505 399.434 164.21 397.337 158.087ZM479.015 175.546C473.707 179.314 469.659 183.974 466.87 189.526C466.132 190.997 465.481 192.531 464.919 194.128C463.396 198.455 462.523 203.243 462.299 208.492C462.261 209.394 462.242 210.31 462.242 211.239C462.242 224.759 466.474 235.225 474.937 242.639C476.244 243.759 477.603 244.793 479.015 245.741C480.591 246.8 482.232 247.752 483.939 248.598C484.218 248.736 484.499 248.871 484.781 249.004C491.354 252.087 498.873 253.629 507.338 253.629C509.682 253.629 511.971 253.508 514.205 253.265C515.642 253.108 517.056 252.902 518.447 252.645C524.324 251.559 529.79 249.576 534.845 246.695C536.591 245.686 538.284 244.622 539.925 243.503C542.984 241.417 545.86 239.14 548.555 236.673C549.38 235.917 550.189 235.143 550.98 234.351C551.006 234.325 551.032 234.299 551.058 234.273C551.659 233.671 552.25 233.058 552.831 232.434C552.981 234.269 553.16 235.992 553.367 237.601C553.38 237.698 553.392 237.795 553.405 237.892C553.552 239.006 553.714 240.065 553.889 241.069C554.28 243.313 554.948 245.695 555.895 248.214C556.015 248.534 556.14 248.856 556.269 249.181H597.265V243.686C594.797 242.552 592.945 241.113 591.711 239.368C591.104 238.51 590.614 237.272 590.241 235.653C590.176 235.369 590.114 235.074 590.056 234.766C589.772 233.267 589.575 231.489 589.463 229.432C589.463 229.435 589.463 229.43 589.463 229.432C589.355 225.461 589.279 221.846 589.237 218.601C589.211 216.572 589.198 214.685 589.198 212.94V147.524C589.198 144.32 588.985 141.308 588.559 138.487C588.335 136.997 588.05 135.562 587.707 134.179C585.757 126.327 581.893 120.191 576.117 115.77C574.5 114.533 572.733 113.429 570.816 112.461C569.735 111.914 568.641 111.392 567.532 110.894C565.463 109.964 563.346 109.118 561.181 108.357C560.92 108.265 560.658 108.174 560.396 108.085C550.784 104.809 540.239 103.171 528.762 103.171C528.319 103.171 527.878 103.174 527.439 103.178C512.04 103.325 499.585 106.061 490.074 111.386C487.095 113.054 484.405 114.976 482.003 117.152C481.852 117.289 481.702 117.427 481.553 117.566C480.666 118.394 479.82 119.257 479.015 120.156C478.475 120.758 477.953 121.377 477.45 122.011C474.929 125.243 472.852 128.835 471.217 132.788C469.495 136.955 468.264 141.523 467.527 146.491C467.519 146.542 467.512 146.593 467.504 146.644C467.486 146.767 467.468 146.891 467.451 147.015C467.189 148.874 466.996 150.788 466.87 152.757H503.238C503.376 151.899 503.535 151.068 503.716 150.265C504.203 148.101 504.846 146.138 505.646 144.376C505.687 144.285 505.729 144.194 505.771 144.104C506.548 142.445 507.467 140.968 508.528 139.674C509.585 138.429 510.854 137.362 512.334 136.472C512.364 136.454 512.395 136.436 512.425 136.418C512.596 136.317 512.77 136.218 512.947 136.121C516.077 134.409 520.083 133.433 524.967 133.191C524.994 133.19 525.022 133.189 525.049 133.187C525.824 133.151 526.621 133.132 527.439 133.132C527.886 133.132 528.327 133.136 528.762 133.143C529.982 133.163 531.154 133.212 532.278 133.289C532.41 133.298 532.542 133.307 532.673 133.317C537.261 133.662 541.023 134.49 543.959 135.801C544.473 136.031 544.962 136.275 545.425 136.534C549.316 138.582 551.38 142.245 551.617 147.524C551.633 147.866 551.64 148.215 551.64 148.57C551.64 148.743 551.637 148.913 551.63 149.082C551.629 149.096 551.629 149.109 551.628 149.123C551.493 152.171 550.226 154.687 547.828 156.671C546.672 157.627 545.254 158.459 543.573 159.168C543.539 159.183 543.505 159.197 543.471 159.212C542.389 159.676 541.057 160.111 539.474 160.52C538.451 160.783 537.323 161.036 536.091 161.277C535.939 161.306 535.785 161.336 535.631 161.365C535.46 161.397 535.287 161.429 535.112 161.461C534.862 161.507 534.607 161.552 534.348 161.597C533.611 161.725 532.841 161.85 532.039 161.971C531.739 162.016 531.435 162.06 531.126 162.105C530.73 162.161 530.327 162.217 529.917 162.272C529.495 162.328 529.066 162.384 528.629 162.439L515.802 164.009C515.768 164.013 515.735 164.017 515.701 164.021C511.21 164.589 507.056 165.274 503.238 166.075C500.122 166.729 497.23 167.461 494.562 168.271C494.554 168.273 494.546 168.275 494.538 168.278C489.937 169.676 486.004 171.306 482.74 173.167C481.436 173.916 480.194 174.709 479.015 175.546ZM510.137 191.947C509.656 192.181 509.208 192.419 508.793 192.661C508.014 193.116 507.287 193.605 506.612 194.128C503.352 196.653 501.31 199.962 500.484 204.056C500.473 204.112 500.462 204.167 500.451 204.223C500.193 205.563 500.064 206.986 500.064 208.492C500.064 209.447 500.104 210.363 500.183 211.239C500.236 211.819 500.306 212.382 500.393 212.927C500.422 213.111 500.453 213.292 500.487 213.472C501.202 217.333 502.824 220.295 505.354 222.36C505.992 222.853 506.653 223.302 507.338 223.707C510.532 225.6 514.235 226.547 518.447 226.547C520.004 226.547 521.537 226.46 523.045 226.286C523.098 226.28 523.15 226.274 523.203 226.268C524.795 226.078 526.36 225.791 527.898 225.408C527.909 225.405 527.92 225.402 527.931 225.399C529.401 225.031 530.846 224.574 532.267 224.029C532.376 223.987 532.485 223.944 532.594 223.901C533.958 223.363 535.3 222.742 536.619 222.038C537.664 221.481 538.696 220.871 539.712 220.21C539.996 220.026 540.278 219.837 540.559 219.645C540.638 219.591 540.717 219.537 540.796 219.482C543.75 217.459 546.094 214.72 547.828 211.265C549.226 208.478 550.227 205.226 550.832 201.508C550.872 201.265 550.91 201.019 550.946 200.771C550.971 200.599 550.996 200.426 551.019 200.251C551.296 198.204 551.459 196.023 551.508 193.708V179.839C550.293 180.597 549.066 181.285 547.828 181.906C546.64 182.501 545.443 183.033 544.235 183.503C543.279 183.853 542.173 184.196 540.919 184.532C540.622 184.612 540.316 184.691 540.002 184.77C538.341 185.188 536.446 185.594 534.316 185.989L525.852 187.559C523.654 187.945 521.628 188.355 519.774 188.789C519.696 188.807 519.618 188.826 519.54 188.844C519.34 188.892 519.142 188.939 518.947 188.987C518.918 188.994 518.89 189.001 518.861 189.008C518.722 189.042 518.584 189.077 518.447 189.111C515.802 189.776 513.543 190.494 511.67 191.264C511.127 191.487 510.616 191.715 510.137 191.947ZM629.93 249.181H667.488V134.179H692.218V107.881H667.488V105.265C667.447 103.644 667.447 102.124 667.488 100.705C667.508 100.021 667.538 99.3603 667.577 98.7231C667.631 97.8524 667.703 97.0257 667.792 96.2431C667.849 95.7499 667.913 95.2742 667.984 94.816C668.094 94.1044 668.221 93.4351 668.366 92.808C668.479 92.3167 668.603 91.8512 668.738 91.4117C668.843 91.0688 668.955 90.7417 669.072 90.4303C669.117 90.3141 669.161 90.2 669.207 90.0882C669.903 88.3906 671.233 87.1395 673.197 86.3349C674.099 85.9655 675.134 85.6902 676.303 85.509C676.491 85.4799 676.683 85.4531 676.878 85.4289C677.85 85.3078 678.907 85.2473 680.051 85.2473C680.601 85.2473 681.131 85.2496 681.642 85.2543C683.349 85.2698 684.846 85.3111 686.135 85.3782C687.149 85.3782 688.18 85.3942 689.227 85.4262C689.909 85.447 690.597 85.4746 691.292 85.509V55.1558C690.082 55.0732 688.892 54.9906 687.721 54.9081C687.188 54.8705 686.66 54.8329 686.135 54.7953C685.377 54.741 684.627 54.6867 683.887 54.6324C682.595 54.5378 681.317 54.4688 680.051 54.4255C678.984 54.389 677.926 54.3708 676.878 54.3708C675.622 54.3708 674.395 54.3865 673.197 54.418C669.509 54.5149 666.09 54.7608 662.94 55.1558C657.915 55.7859 653.576 56.7954 649.922 58.1843C645.529 59.8539 642.128 62.0715 639.716 64.8374C637.05 67.7491 634.908 71.2596 633.288 75.3687C633.288 75.3689 633.288 75.3685 633.288 75.3687C631.34 80.3144 630.149 86.1279 629.718 92.808C629.595 94.7095 629.533 96.6812 629.533 98.7231V107.881H608.903V134.179H629.93V249.181ZM714.568 94.2815H751.464V55.1558H714.568V94.2815ZM671.277 92.808C671.392 92.0353 671.515 91.4655 671.616 91.0753C671.646 90.9599 671.674 90.8601 671.7 90.7756C671.745 90.624 671.772 90.5543 671.771 90.554C671.77 90.5536 671.699 90.7319 671.524 91.0374C671.382 91.2849 671.172 91.616 670.877 92.0032C670.755 92.1627 670.618 92.3317 670.466 92.5084M671.277 92.808H670.185H671.277ZM671.301 92.808V95.9074C671.191 95.9145 671.083 95.9218 670.975 95.9293M671.301 92.808H673.197V94.7474M673.197 91.7231V92.808V91.7231ZM714.568 136.118V171.882H752.126V136.118H714.568ZM177.516 127.637V106.835H141.148V249.181H178.706V171.99C178.706 163.18 179.94 155.941 182.409 150.271C182.445 150.189 182.482 150.107 182.519 150.026C184.981 144.59 188.489 140.553 193.043 137.914C197.14 135.539 202.084 134.297 207.875 134.187C207.912 134.186 207.949 134.185 207.987 134.185C208.232 134.181 208.478 134.179 208.726 134.179C213.419 134.179 217.431 134.924 220.76 136.416C224.811 138.23 227.853 141.147 229.885 145.169C230.043 145.48 230.194 145.803 230.339 146.135C230.374 146.215 230.408 146.294 230.442 146.375C231.251 148.293 231.862 150.552 232.276 153.15C232.71 155.873 232.927 158.969 232.927 162.439V249.181H271.543V153.15C271.543 142.518 269.86 133.691 266.493 126.667C266.293 126.249 266.087 125.837 265.875 125.432C263.655 121.195 260.783 117.656 257.26 114.816C247.827 107.053 235.66 103.171 220.76 103.171C220.13 103.171 219.505 103.18 218.886 103.196C215.305 103.289 211.918 103.653 208.726 104.288C205.687 104.892 202.826 105.741 200.14 106.835C196.931 108.142 193.974 109.799 191.269 111.806C188.464 113.902 185.547 116.862 182.519 120.686C180.883 122.751 179.216 125.068 177.516 127.637ZM105.838 249.181V56.3333H65.3708V249.181H105.838ZM752.126 249.181H714.568V212.755H752.126V249.181Z" fill="#3B3E54"/>
</g>
<defs>
<filter id="filter0_d" x="41.3711" y="41.3711" width="734.755" height="247.258" filterUnits="userSpaceOnUse" color-interpolation-filters="sRGB">
<feFlood flood-opacity="0" result="BackgroundImageFix"/>
<feColorMatrix in="SourceAlpha" type="matrix" values="0 0 0 0 0 0 0 0 0 0 0 0 0 0 0 0 0 0 127 0"/>
<feOffset dy="11"/>
<feGaussianBlur stdDeviation="12"/>
<feColorMatrix type="matrix" values="0 0 0 0 0.45098 0 0 0 0 0.396078 0 0 0 0 0.909804 0 0 0 0.04 0"/>
<feBlend mode="normal" in2="BackgroundImageFix" result="effect1_dropShadow"/>
<feBlend mode="normal" in="SourceGraphic" in2="effect1_dropShadow" result="shape"/>
</filter>
<filter id="filter1_d" x="0" y="0" width="817.496" height="330" filterUnits="userSpaceOnUse" color-interpolation-filters="sRGB">
<feFlood flood-opacity="0" result="BackgroundImageFix"/>
<feColorMatrix in="SourceAlpha" type="matrix" values="0 0 0 0 0 0 0 0 0 0 0 0 0 0 0 0 0 0 127 0"/>
<feOffset dy="11"/>
<feGaussianBlur stdDeviation="12"/>
<feColorMatrix type="matrix" values="0 0 0 0 0.45098 0 0 0 0 0.396078 0 0 0 0 0.909804 0 0 0 0.04 0"/>
<feBlend mode="normal" in2="BackgroundImageFix" result="effect1_dropShadow"/>
<feBlend mode="normal" in="SourceGraphic" in2="effect1_dropShadow" result="shape"/>
</filter>
</defs>
</svg>
