<svg width="141" height="20" viewBox="0 0 141 20" fill="none" xmlns="http://www.w3.org/2000/svg">
<g filter="url(#filter0_d)">
<path fill-rule="evenodd" clip-rule="evenodd" d="M107.461 18.0949H111.92V22.8235H107.461V18.0949ZM107.461 27.8798H112V32.2021H107.461V27.8798ZM107.461 37.1421V41.5444H112V37.1421H107.461ZM102.906 18C103.183 18 103.465 18.0105 103.753 18.0316C104.04 18.0527 104.339 18.0738 104.648 18.0949V21.7633C104.435 21.7528 104.227 21.7475 104.024 21.7475C103.822 21.737 103.577 21.7317 103.289 21.7317C102.575 21.7317 102.138 21.9267 101.979 22.3167C101.819 22.7068 101.75 23.3182 101.771 24.151V24.4672H104.76V27.6455H101.771V41.5444H97.2317V27.6455H94.6904V24.4672H97.1837V23.3603C97.1837 21.5261 97.5939 20.161 98.4144 19.265C99.1496 18.4217 100.647 18 102.906 18ZM29 41.5444H33.8908V18.2372H29V41.5444ZM52.1914 25.3053C51.0513 24.3671 49.5808 23.898 47.7801 23.898C46.3416 23.898 45.1535 24.2458 44.2159 24.9416C43.6938 25.3316 43.1397 25.9694 42.5536 26.8549V24.3407H38.1583V41.5444H42.6975V32.2152C42.6975 31.1505 42.8467 30.2756 43.145 29.5904C43.7204 28.2938 44.7806 27.6455 46.3256 27.6455C47.583 27.6455 48.4354 28.0882 48.8829 28.9737C49.128 29.4586 49.2505 30.1543 49.2505 31.0609V41.5444H53.9176V29.9382C53.9176 27.7772 53.3422 26.2329 52.1914 25.3053ZM64.5623 23.898C65.6172 23.898 66.5549 24.1299 67.3753 24.5937C68.1958 25.047 68.8617 25.6795 69.3732 26.4912V18.2688H73.9923V41.5444H69.565V39.1568C68.915 40.1793 68.1745 40.9225 67.3433 41.3863C66.5122 41.8501 65.4787 42.082 64.2426 42.082C62.2075 42.082 60.4919 41.2703 59.0961 39.6469C57.7109 38.013 57.0183 35.9205 57.0183 33.3695C57.0183 30.4284 57.7002 28.1146 59.0641 26.4279C60.4387 24.7413 62.2714 23.898 64.5623 23.898ZM65.5532 38.2871C66.8425 38.2871 67.8228 37.8127 68.4941 36.864C69.1654 35.9153 69.5011 34.6872 69.5011 33.1797C69.5011 31.0714 68.963 29.564 67.8868 28.6574C67.2261 28.1093 66.459 27.8352 65.5852 27.8352C64.2533 27.8352 63.273 28.3359 62.6443 29.3374C62.0263 30.3283 61.7173 31.5616 61.7173 33.0374C61.7173 34.6292 62.0317 35.9047 62.6603 36.864C63.2996 37.8127 64.2639 38.2871 65.5532 38.2871ZM86.8746 33.6067C87.173 33.4907 87.466 33.3431 87.7537 33.1639V34.84C87.7217 36.3475 87.2902 37.3858 86.4591 37.955C85.6386 38.5243 84.7382 38.8089 83.7579 38.8089C83.1399 38.8089 82.6125 38.6402 82.1756 38.3029C81.7494 37.955 81.5363 37.3963 81.5363 36.6268C81.5363 35.7624 81.8879 35.1246 82.5912 34.7135C83.0067 34.4711 83.694 34.2655 84.653 34.0969L85.6759 33.9071C86.1874 33.8122 86.587 33.7121 86.8746 33.6067ZM86.7947 30.6656C86.4324 30.8237 85.8304 30.9555 84.9886 31.0609L83.4383 31.2507C81.6801 31.472 80.3482 31.841 79.4425 32.3575C77.7909 33.3062 76.9651 34.84 76.9651 36.9589C76.9651 38.5928 77.4766 39.8578 78.4995 40.7538C79.5331 41.6393 80.8384 42.082 82.4154 42.082C83.6514 42.082 84.7596 41.8027 85.7398 41.244C86.5603 40.7696 87.2849 40.1951 87.9135 39.5204C87.9455 39.9105 87.9881 40.2584 88.0414 40.5641C88.0947 40.8698 88.1906 41.1965 88.3291 41.5444H93.2839V40.8803C92.9855 40.7433 92.7617 40.5693 92.6126 40.3585C92.4634 40.1477 92.3728 39.7471 92.3408 39.1568C92.3195 38.3767 92.3089 37.7126 92.3089 37.1644V29.2583C92.3089 27.1816 91.5683 25.7691 90.0872 25.0206C88.6061 24.2722 86.9119 23.898 85.0046 23.898C82.0744 23.898 80.0073 24.6569 78.8032 26.1749C78.0467 27.1447 77.6205 28.3834 77.5246 29.8908H81.9199C82.0264 29.2267 82.2396 28.6996 82.5592 28.3096C83.0067 27.7825 83.7686 27.519 84.8448 27.519C85.8038 27.519 86.5283 27.656 87.0185 27.9301C87.5193 28.1936 87.7697 28.6785 87.7697 29.3848C87.7697 29.9646 87.4447 30.3915 86.7947 30.6656Z" fill="#B0AAE2"/>
</g>
<path d="M24 43H117V47H24V43Z" fill="#2D2F41"/>
<g filter="url(#filter1_d)">
<path fill-rule="evenodd" clip-rule="evenodd" d="M116.92 13.0949V22.8798H117V46.5444H86.0204C84.8538 46.9102 83.6426 47.082 82.4154 47.082C81.1942 47.082 79.9848 46.9131 78.8284 46.5444H67.9395C66.7171 46.9315 65.4604 47.082 64.2426 47.082C62.3048 47.082 60.515 46.6379 58.9176 45.8074V46.5444H24V13.2372H38.8908V19.3407H44.4732C45.5577 19.0315 46.6742 18.898 47.7801 18.898C50.4688 18.898 53.1341 19.614 55.3498 21.429C55.648 21.6708 55.9234 21.9249 56.1773 22.1894C58.4001 20.0339 61.2347 18.9413 64.3732 18.8992V13.2688H78.9923V19.9858C80.8932 19.1858 82.9867 18.898 85.0046 18.898C86.6102 18.898 88.1819 19.0961 89.6904 19.5247V19.4672H92.7195C93.101 18.2168 93.7215 17.0003 94.6885 15.9305C96.9824 13.3452 100.515 13 102.906 13C103.31 13 103.714 13.0154 104.118 13.045C104.344 13.0616 104.578 13.0782 104.819 13.0949H116.92ZM73.9923 18.2688H69.3732V26.4912C69.2545 26.3029 69.1276 26.1242 68.9923 25.9552C68.5444 25.3957 68.0054 24.9418 67.3753 24.5937C66.8303 24.2856 66.2336 24.0798 65.5852 23.9764C65.2575 23.9241 64.9165 23.898 64.5623 23.898C64.4989 23.898 64.4359 23.8986 64.3732 23.8999C62.1703 23.9453 60.4006 24.7879 59.0641 26.4279C58.9466 26.5733 58.8341 26.7233 58.7267 26.878C58.7241 26.8817 58.7215 26.8854 58.7189 26.8892C58.689 26.9324 58.6595 26.9761 58.6303 27.02C58.0737 27.8602 57.6613 28.8329 57.393 29.9382C57.1653 30.8759 57.0414 31.909 57.0212 33.0374C57.0193 33.1472 57.0183 33.2579 57.0183 33.3695C57.0183 35.771 57.6321 37.7661 58.8596 39.3548C58.8715 39.3702 58.8835 39.3856 58.8955 39.401C58.9028 39.4103 58.9102 39.4197 58.9176 39.429C58.9757 39.5025 59.0353 39.5752 59.0961 39.6469C60.4919 41.2703 62.2075 42.082 64.2426 42.082C64.3517 42.082 64.4591 42.0802 64.565 42.0766C64.9113 42.0648 65.2407 42.0337 65.5532 41.9833C66.0976 41.8955 66.5908 41.7492 67.0329 41.5444C67.1393 41.4951 67.2428 41.4424 67.3433 41.3863C67.9396 41.0535 68.4893 40.577 68.9923 39.9567C69.1904 39.7123 69.3813 39.4457 69.565 39.1568V41.5444H73.9923V18.2688ZM69.1209 30.5349C69.0812 30.4188 69.0383 30.3062 68.9923 30.1971C68.7273 29.5683 68.3588 29.0551 67.8868 28.6574C67.5743 28.3982 67.238 28.2002 66.8778 28.0636C66.4765 27.9113 66.0457 27.8352 65.5852 27.8352C65.5855 27.8352 65.585 27.8352 65.5852 27.8352C65.5713 27.8352 65.5566 27.8353 65.5427 27.8354C65.1911 27.8382 64.8643 27.8763 64.5623 27.9497C63.7423 28.149 63.105 28.6084 62.6503 29.3279C62.6483 29.331 62.6463 29.3342 62.6443 29.3374C62.6432 29.3392 62.6421 29.341 62.6409 29.3429C62.0252 30.3328 61.7173 31.5643 61.7173 33.0374C61.7173 33.1497 61.7189 33.2604 61.722 33.3695C61.7604 34.7109 62.0352 35.8145 62.5461 36.6805C62.5516 36.6897 62.5571 36.6989 62.5626 36.7081C62.5943 36.761 62.6269 36.8129 62.6603 36.864C63.0605 37.4578 63.5879 37.8658 64.2426 38.0879C64.634 38.2207 65.0709 38.2871 65.5532 38.2871C65.5734 38.2871 65.5935 38.287 65.6136 38.2867C66.326 38.2785 66.9426 38.1232 67.4634 37.8209C67.8635 37.5887 68.2071 37.2697 68.4941 36.864C68.6883 36.5896 68.8543 36.2919 68.9923 35.9708C69.0534 35.8286 69.109 35.6818 69.1591 35.5304C69.3871 34.8417 69.5011 34.0582 69.5011 33.1797C69.5011 32.1566 69.3743 31.275 69.1209 30.5349ZM78.9923 32.6451C78.3508 33.1004 77.8615 33.6636 77.5246 34.3346C77.4353 34.5124 77.3567 34.6978 77.2887 34.8908C77.1047 35.4138 76.9991 35.9925 76.9721 36.6268C76.9675 36.7359 76.9651 36.8465 76.9651 36.9589C76.9651 38.5928 77.4766 39.8578 78.4995 40.7538C78.6574 40.8891 78.8217 41.014 78.9923 41.1287C79.1828 41.2567 79.3812 41.3717 79.5875 41.474C79.6212 41.4907 79.6551 41.507 79.6892 41.523C80.4836 41.8957 81.3923 42.082 82.4154 42.082C82.6987 42.082 82.9754 42.0673 83.2453 42.038C83.419 42.0191 83.5898 41.9941 83.7579 41.9631C84.4683 41.8319 85.1289 41.5922 85.7398 41.244C85.9508 41.122 86.1555 40.9934 86.3538 40.8582C86.7235 40.606 87.0712 40.3309 87.3968 40.0327C87.4966 39.9414 87.5943 39.8478 87.6899 39.7521C87.6931 39.749 87.6962 39.7458 87.6994 39.7427C87.772 39.6699 87.8433 39.5958 87.9135 39.5204C87.9317 39.7422 87.9533 39.9504 87.9784 40.1449C87.9799 40.1567 87.9815 40.1684 87.983 40.18C88.0008 40.3147 88.0203 40.4427 88.0414 40.5641C88.0887 40.8353 88.1695 41.1231 88.2839 41.4275C88.2984 41.4662 88.3135 41.5052 88.3291 41.5444H93.2839V40.8803C92.9855 40.7433 92.7617 40.5693 92.6126 40.3585C92.5392 40.2548 92.48 40.1051 92.4349 39.9095C92.427 39.8752 92.4196 39.8394 92.4125 39.8023C92.3783 39.6211 92.3544 39.4062 92.3409 39.1576C92.3409 39.1579 92.3409 39.1573 92.3409 39.1576C92.3278 38.6777 92.3187 38.2407 92.3136 37.8485C92.3105 37.6033 92.3089 37.3753 92.3089 37.1644V29.2583C92.3089 28.8712 92.2831 28.5071 92.2317 28.1661C92.2045 27.9861 92.1702 27.8126 92.1286 27.6455C91.8929 26.6965 91.426 25.9549 90.728 25.4206C90.5325 25.271 90.3189 25.1377 90.0872 25.0206C89.9566 24.9546 89.8243 24.8915 89.6904 24.8313C89.4403 24.7189 89.1844 24.6167 88.9227 24.5246C88.8912 24.5135 88.8596 24.5026 88.8278 24.4918C87.6661 24.0959 86.3917 23.898 85.0046 23.898C84.9511 23.898 84.8978 23.8982 84.8448 23.8987C82.9837 23.9165 81.4784 24.2472 80.3289 24.8908C79.9688 25.0924 79.6437 25.3246 79.3535 25.5876C79.3352 25.6042 79.317 25.6208 79.299 25.6376C79.1919 25.7377 79.0896 25.842 78.9923 25.9507C78.9271 26.0235 78.864 26.0982 78.8032 26.1749C78.4985 26.5655 78.2475 26.9996 78.0499 27.4774C77.8417 27.981 77.693 28.533 77.6038 29.1335C77.6029 29.1397 77.602 29.1458 77.6011 29.152C77.5989 29.1669 77.5968 29.1819 77.5947 29.1969C77.5631 29.4215 77.5397 29.6528 77.5246 29.8908H81.9199C81.9365 29.787 81.9558 29.6866 81.9776 29.5896C82.0365 29.3281 82.1142 29.0908 82.2109 28.8779C82.2159 28.8669 82.2209 28.8559 82.226 28.845C82.3199 28.6445 82.431 28.466 82.5592 28.3096C82.687 28.1591 82.8403 28.0302 83.0193 27.9227C83.0229 27.9205 83.0265 27.9183 83.0302 27.9161C83.0509 27.9039 83.0719 27.8919 83.0933 27.8802C83.4715 27.6733 83.9557 27.5553 84.546 27.5261C84.5493 27.526 84.5526 27.5258 84.556 27.5256C84.6496 27.5212 84.7459 27.519 84.8448 27.519C84.8988 27.519 84.9521 27.5194 85.0046 27.5203C85.1522 27.5227 85.2938 27.5286 85.4296 27.5379C85.4456 27.539 85.4615 27.5401 85.4773 27.5413C86.0318 27.583 86.4865 27.6831 86.8414 27.8415C86.9035 27.8693 86.9625 27.8988 87.0185 27.9301C87.4888 28.1776 87.7383 28.6203 87.7669 29.2583C87.7688 29.2997 87.7697 29.3418 87.7697 29.3848C87.7697 29.4056 87.7693 29.4263 87.7684 29.4467C87.7684 29.4483 87.7683 29.4499 87.7682 29.4515C87.7519 29.82 87.5988 30.1241 87.3089 30.3639C87.1692 30.4794 86.9979 30.5799 86.7947 30.6656C86.7906 30.6674 86.7865 30.6692 86.7824 30.6709C86.6516 30.727 86.4906 30.7796 86.2993 30.829C86.1756 30.8609 86.0393 30.8914 85.8904 30.9205C85.872 30.924 85.8535 30.9276 85.8348 30.9311C85.8141 30.935 85.7933 30.9389 85.7721 30.9428C85.7418 30.9483 85.7111 30.9538 85.6798 30.9592C85.5907 30.9747 85.4977 30.9897 85.4007 31.0043C85.3645 31.0098 85.3277 31.0152 85.2904 31.0205C85.2426 31.0274 85.1938 31.0341 85.1442 31.0408C85.0933 31.0476 85.0414 31.0543 84.9886 31.0609L83.4383 31.2507C83.4342 31.2512 83.4302 31.2517 83.4262 31.2522C82.8834 31.3208 82.3813 31.4035 81.9199 31.5004C81.5432 31.5794 81.1937 31.6679 80.8713 31.7657C80.8703 31.766 80.8694 31.7663 80.8684 31.7666C80.3123 31.9356 79.837 32.1325 79.4425 32.3575C79.2849 32.448 79.1349 32.5439 78.9923 32.6451ZM82.7537 34.6273C82.6956 34.6555 82.6414 34.6842 82.5912 34.7135C82.4971 34.7686 82.4092 34.8277 82.3277 34.8908C81.9337 35.196 81.6868 35.5959 81.587 36.0908C81.5857 36.0974 81.5844 36.1041 81.5831 36.1108C81.5519 36.2728 81.5363 36.4448 81.5363 36.6268C81.5363 36.7422 81.5411 36.8529 81.5507 36.9589C81.557 37.0289 81.5655 37.0969 81.576 37.1628C81.5795 37.185 81.5833 37.207 81.5874 37.2287C81.6738 37.6953 81.8699 38.0533 82.1756 38.3029C82.2527 38.3624 82.3326 38.4167 82.4154 38.4657C82.8015 38.6945 83.249 38.8089 83.7579 38.8089C83.9462 38.8089 84.1314 38.7984 84.3138 38.7774C84.3201 38.7767 84.3265 38.7759 84.3328 38.7752C84.5253 38.7522 84.7144 38.7176 84.9003 38.6712C84.9016 38.6709 84.9029 38.6705 84.9042 38.6702C85.0819 38.6257 85.2566 38.5705 85.4282 38.5046C85.4414 38.4995 85.4546 38.4944 85.4678 38.4892C85.6327 38.4241 85.7949 38.349 85.9542 38.264C86.0806 38.1966 86.2052 38.123 86.3281 38.0431C86.3623 38.0208 86.3965 37.998 86.4305 37.9748C86.44 37.9682 86.4496 37.9617 86.4591 37.955C86.8161 37.7105 87.0993 37.3795 87.3089 36.9619C87.4779 36.6252 87.5989 36.2321 87.672 35.7828C87.6768 35.7533 87.6814 35.7236 87.6858 35.6937C87.6888 35.6729 87.6918 35.6519 87.6946 35.6309C87.7281 35.3834 87.7478 35.1198 87.7537 34.84V33.1639C87.6068 33.2554 87.4585 33.3387 87.3089 33.4137C87.1654 33.4856 87.0207 33.5499 86.8746 33.6067C86.7591 33.649 86.6255 33.6905 86.4739 33.7311C86.438 33.7407 86.401 33.7503 86.3631 33.7599C86.1624 33.8103 85.9333 33.8594 85.6759 33.9071L84.653 34.0969C84.3873 34.1436 84.1424 34.1932 83.9184 34.2456C83.9089 34.2478 83.8995 34.25 83.8901 34.2522C83.8659 34.2579 83.842 34.2637 83.8184 34.2695C83.8149 34.2703 83.8115 34.2712 83.8081 34.272C83.7912 34.2761 83.7745 34.2803 83.7579 34.2845C83.4383 34.3649 83.1653 34.4516 82.939 34.5447C82.8733 34.5717 82.8115 34.5992 82.7537 34.6273ZM97.2317 41.5444H101.771V27.6455H104.76V24.4672H101.771V24.151C101.766 23.955 101.766 23.7713 101.771 23.5999C101.773 23.5172 101.777 23.4374 101.782 23.3603C101.788 23.2551 101.797 23.1552 101.808 23.0606C101.814 23.001 101.822 22.9435 101.831 22.8881C101.844 22.8021 101.859 22.7212 101.877 22.6455C101.891 22.5861 101.906 22.5298 101.922 22.4767C101.935 22.4353 101.948 22.3957 101.962 22.3581C101.968 22.344 101.973 22.3303 101.979 22.3167C102.063 22.1116 102.223 21.9604 102.461 21.8631C102.57 21.8185 102.695 21.7852 102.836 21.7633C102.859 21.7598 102.882 21.7566 102.906 21.7536C103.023 21.739 103.151 21.7317 103.289 21.7317C103.356 21.7317 103.42 21.732 103.482 21.7325C103.688 21.7344 103.869 21.7394 104.024 21.7475C104.147 21.7475 104.272 21.7494 104.398 21.7533C104.481 21.7558 104.564 21.7592 104.648 21.7633V18.0949C104.502 18.0849 104.358 18.0749 104.216 18.0649C104.152 18.0604 104.088 18.0559 104.024 18.0513C103.933 18.0447 103.842 18.0382 103.753 18.0316C103.597 18.0202 103.442 18.0119 103.289 18.0066C103.16 18.0022 103.032 18 102.906 18C102.754 18 102.606 18.0019 102.461 18.0057C102.015 18.0174 101.602 18.0471 101.221 18.0949C100.614 18.171 100.089 18.293 99.6478 18.4609C99.117 18.6627 98.7058 18.9307 98.4144 19.265C98.0922 19.6169 97.8332 20.0412 97.6376 20.5378C97.6376 20.5378 97.6376 20.5377 97.6376 20.5378C97.402 21.1355 97.2582 21.8381 97.206 22.6455C97.1911 22.8753 97.1837 23.1136 97.1837 23.3603V24.4672H94.6904V27.6455H97.2317V41.5444ZM107.461 22.8235H111.92V18.0949H107.461V22.8235ZM102.229 22.6455C102.243 22.5521 102.258 22.4832 102.27 22.436C102.273 22.4221 102.277 22.41 102.28 22.3998C102.285 22.3815 102.289 22.3731 102.288 22.373C102.288 22.373 102.28 22.3945 102.259 22.4315C102.241 22.4614 102.216 22.5014 102.18 22.5482C102.166 22.5675 102.149 22.5879 102.131 22.6093M102.229 22.6455H102.097H102.229ZM102.232 22.6455V23.02C102.218 23.0209 102.205 23.0218 102.192 23.0227M102.232 22.6455H102.461V22.8798M102.461 22.5143V22.6455V22.5143ZM107.461 27.8798V32.2021H112V27.8798H107.461ZM42.5536 26.8549V24.3407H38.1583V41.5444H42.6975V32.2152C42.6975 31.1505 42.8467 30.2756 43.145 29.5904C43.1494 29.5805 43.1538 29.5706 43.1583 29.5607C43.4559 28.9038 43.8798 28.4158 44.4302 28.0968C44.9254 27.8099 45.523 27.6597 46.2228 27.6464C46.2273 27.6463 46.2318 27.6463 46.2363 27.6462C46.2659 27.6457 46.2957 27.6455 46.3256 27.6455C46.8929 27.6455 47.3777 27.7356 47.7801 27.9158C48.2697 28.135 48.6373 28.4877 48.8829 28.9737C48.902 29.0114 48.9203 29.0503 48.9378 29.0905C48.942 29.1001 48.9461 29.1097 48.9502 29.1194C49.048 29.3513 49.1219 29.6242 49.1719 29.9382C49.2243 30.2674 49.2505 30.6416 49.2505 31.0609V41.5444H53.9176V29.9382C53.9176 28.6533 53.7142 27.5865 53.3073 26.7376C53.2831 26.6871 53.2582 26.6373 53.2325 26.5884C52.9643 26.0762 52.6172 25.6485 52.1914 25.3053C51.0513 24.3671 49.5808 23.898 47.7801 23.898C47.7039 23.898 47.6284 23.8989 47.5536 23.9009C47.1208 23.9122 46.7114 23.9562 46.3256 24.0329C45.9584 24.1059 45.6125 24.2085 45.288 24.3407C44.9002 24.4987 44.5428 24.699 44.2159 24.9416C43.8768 25.1948 43.5243 25.5526 43.1583 26.0148C42.9607 26.2644 42.7591 26.5444 42.5536 26.8549ZM33.8908 41.5444V18.2372H29V41.5444H33.8908ZM112 41.5444H107.461V37.1421H112V41.5444Z" fill="#2D2F41"/>
</g>
<defs>
<filter id="filter0_d" x="5" y="5" width="131" height="72.082" filterUnits="userSpaceOnUse" color-interpolation-filters="sRGB">
<feFlood flood-opacity="0" result="BackgroundImageFix"/>
<feColorMatrix in="SourceAlpha" type="matrix" values="0 0 0 0 0 0 0 0 0 0 0 0 0 0 0 0 0 0 127 0"/>
<feOffset dy="11"/>
<feGaussianBlur stdDeviation="12"/>
<feColorMatrix type="matrix" values="0 0 0 0 0.45098 0 0 0 0 0.396078 0 0 0 0 0.909804 0 0 0 0.04 0"/>
<feBlend mode="normal" in2="BackgroundImageFix" result="effect1_dropShadow"/>
<feBlend mode="normal" in="SourceGraphic" in2="effect1_dropShadow" result="shape"/>
</filter>
<filter id="filter1_d" x="0" y="0" width="141" height="82.082" filterUnits="userSpaceOnUse" color-interpolation-filters="sRGB">
<feFlood flood-opacity="0" result="BackgroundImageFix"/>
<feColorMatrix in="SourceAlpha" type="matrix" values="0 0 0 0 0 0 0 0 0 0 0 0 0 0 0 0 0 0 127 0"/>
<feOffset dy="11"/>
<feGaussianBlur stdDeviation="12"/>
<feColorMatrix type="matrix" values="0 0 0 0 0.45098 0 0 0 0 0.396078 0 0 0 0 0.909804 0 0 0 0.04 0"/>
<feBlend mode="normal" in2="BackgroundImageFix" result="effect1_dropShadow"/>
<feBlend mode="normal" in="SourceGraphic" in2="effect1_dropShadow" result="shape"/>
</filter>
</defs>
</svg>
