<svg width="75" height="38" viewBox="0 0 75 38" fill="none" xmlns="http://www.w3.org/2000/svg">
<path d="M1.2289 18.9032C0.875493 18.9032 0.578307 18.7902 0.337346 18.5643C0.112449 18.3223 0 18.0238 0 17.6688V6.8981C0 6.52697 0.112449 6.22846 0.337346 6.00256C0.578307 5.77665 0.875493 5.6637 1.2289 5.6637C1.59838 5.6637 1.89556 5.77665 2.12046 6.00256C2.34536 6.22846 2.4578 6.52697 2.4578 6.8981V17.6688C2.4578 18.0238 2.34536 18.3223 2.12046 18.5643C1.89556 18.7902 1.59838 18.9032 1.2289 18.9032Z" fill="white"/>
<path d="M8.25914 18.9274C7.90573 18.9274 7.60854 18.8144 7.36758 18.5885C7.14268 18.3465 7.03023 18.048 7.03023 17.693V6.8981C7.03023 6.52697 7.14268 6.22846 7.36758 6.00256C7.60854 5.77665 7.90573 5.6637 8.25914 5.6637C8.62861 5.6637 8.92579 5.77665 9.15069 6.00256C9.37559 6.22846 9.48804 6.52697 9.48804 6.8981V7.16434C9.98602 6.66413 10.5884 6.2688 11.2952 5.97835C12.0021 5.68791 12.7651 5.54268 13.5844 5.54268C14.6928 5.54268 15.6807 5.78472 16.5482 6.2688C17.4317 6.73674 18.1225 7.43058 18.6205 8.35033C19.1345 9.27007 19.3916 10.3996 19.3916 11.7389V17.693C19.3916 18.048 19.2711 18.3465 19.0301 18.5885C18.8052 18.8144 18.5161 18.9274 18.1626 18.9274C17.8092 18.9274 17.5121 18.8144 17.2711 18.5885C17.0462 18.3465 16.9337 18.048 16.9337 17.693V11.7389C16.9337 10.3673 16.5643 9.36689 15.8253 8.73759C15.1024 8.09215 14.1948 7.76944 13.1025 7.76944C12.4278 7.76944 11.8173 7.90659 11.2712 8.1809C10.725 8.45521 10.2912 8.82634 9.96996 9.29428C9.64868 9.74608 9.48804 10.2705 9.48804 10.8675V17.693C9.48804 18.048 9.37559 18.3465 9.15069 18.5885C8.92579 18.8144 8.62861 18.9274 8.25914 18.9274Z" fill="white"/>
<path d="M29.431 19C28.178 19 27.0455 18.7096 26.0334 18.1287C25.0374 17.5316 24.2423 16.7248 23.6479 15.7083C23.0696 14.6917 22.7804 13.5461 22.7804 12.2713C22.7804 10.9966 23.0455 9.85903 23.5756 8.85861C24.1218 7.84205 24.8607 7.04332 25.7925 6.46243C26.7242 5.8654 27.7764 5.56689 28.9491 5.56689C29.8968 5.56689 30.7723 5.76859 31.5755 6.17198C32.3787 6.55924 33.0534 7.09173 33.5996 7.76944V1.23439C33.5996 0.863269 33.7121 0.564756 33.937 0.338854C34.1779 0.112952 34.4751 0 34.8285 0C35.198 0 35.4952 0.112952 35.7201 0.338854C35.945 0.564756 36.0574 0.863269 36.0574 1.23439V12.2713C36.0574 13.5461 35.7602 14.6917 35.1659 15.7083C34.5875 16.7248 33.8004 17.5316 32.8044 18.1287C31.8085 18.7096 30.684 19 29.431 19ZM29.431 16.8217C30.2502 16.8217 30.9812 16.628 31.6237 16.2408C32.2663 15.8374 32.7723 15.2888 33.1418 14.5949C33.5113 13.9011 33.696 13.1265 33.696 12.2713C33.696 11.4 33.5113 10.6255 33.1418 9.94778C32.7723 9.27007 32.2663 8.73759 31.6237 8.35033C30.9812 7.94693 30.2502 7.74523 29.431 7.74523C28.6278 7.74523 27.8969 7.94693 27.2382 8.35033C26.5957 8.73759 26.0816 9.27007 25.6961 9.94778C25.3266 10.6255 25.1419 11.4 25.1419 12.2713C25.1419 13.1265 25.3266 13.9011 25.6961 14.5949C26.0816 15.2888 26.5957 15.8374 27.2382 16.2408C27.8969 16.628 28.6278 16.8217 29.431 16.8217Z" fill="white"/>
<path d="M45.8916 19C44.719 19 43.6668 18.7096 42.7351 18.1287C41.8033 17.5316 41.0644 16.7329 40.5182 15.7325C39.9881 14.7159 39.723 13.5703 39.723 12.2956C39.723 11.0208 40.0122 9.87517 40.5905 8.85861C41.1849 7.84205 41.98 7.04332 42.976 6.46243C43.9881 5.8654 45.1206 5.56689 46.3736 5.56689C47.6266 5.56689 48.7511 5.8654 49.747 6.46243C50.743 7.04332 51.5301 7.84205 52.1084 8.85861C52.7028 9.87517 53 11.0208 53 12.2956V17.693C53 18.048 52.8795 18.3465 52.6386 18.5885C52.4137 18.8144 52.1245 18.9274 51.7711 18.9274C51.4177 18.9274 51.1205 18.8144 50.8795 18.5885C50.6546 18.3465 50.5422 18.048 50.5422 17.693V16.7975C49.98 17.4752 49.2972 18.0157 48.494 18.4191C47.7069 18.8064 46.8394 19 45.8916 19ZM46.3736 16.8217C47.1928 16.8217 47.9238 16.628 48.5663 16.2408C49.2089 15.8374 49.7149 15.2968 50.0844 14.6191C50.4538 13.9253 50.6386 13.1508 50.6386 12.2956C50.6386 11.4242 50.4538 10.6497 50.0844 9.97198C49.7149 9.27814 49.2089 8.73759 48.5663 8.35033C47.9238 7.94693 47.1928 7.74523 46.3736 7.74523C45.5704 7.74523 44.8394 7.94693 44.1808 8.35033C43.5383 8.73759 43.0242 9.27814 42.6387 9.97198C42.2692 10.6497 42.0845 11.4242 42.0845 12.2956C42.0845 13.1508 42.2692 13.9253 42.6387 14.6191C43.0242 15.2968 43.5383 15.8374 44.1808 16.2408C44.8394 16.628 45.5704 16.8217 46.3736 16.8217Z" fill="white"/>
<path d="M1.2289 2.5C0.875493 2.5 0.578307 2.38705 0.337346 2.16115C0.112449 1.91911 0 1.6206 0 1.26561C0 0.894482 0.111519 0.595967 0.336416 0.370065C0.577378 0.144162 0.874563 0.0312114 1.22797 0.0312114C1.59745 0.0312114 1.89463 0.144162 2.11953 0.370065C2.34443 0.595967 2.45688 0.894482 2.45688 1.26561C2.45688 1.6206 2.34536 1.91911 2.12046 2.16115C1.89556 2.38705 1.59838 2.5 1.2289 2.5Z" fill="white"/>
<g filter="url(#filter0_d)">
<path d="M13.6285 26.4331C12.5119 26.4331 11.475 26.2637 10.518 25.9248C9.57683 25.5699 8.84307 25.1261 8.31668 24.5936C8.07741 24.3355 7.97373 24.045 8.00563 23.7223C8.05348 23.3834 8.213 23.1091 8.48417 22.8994C8.80319 22.6412 9.11424 22.5363 9.41732 22.5847C9.73634 22.617 10.0075 22.7541 10.2308 22.9962C10.502 23.3028 10.9327 23.5932 11.5229 23.8675C12.129 24.1257 12.799 24.2548 13.5328 24.2548C14.4579 24.2548 15.1598 24.1015 15.6383 23.7949C16.1328 23.4883 16.388 23.093 16.404 22.6089C16.4199 22.1248 16.1886 21.7053 15.7101 21.3503C15.2475 20.9953 14.3941 20.7049 13.1499 20.479C11.5388 20.1563 10.3664 19.6722 9.63266 19.0268C8.91485 18.3813 8.55595 17.5907 8.55595 16.6548C8.55595 15.8318 8.79522 15.1541 9.27376 14.6217C9.7523 14.073 10.3664 13.6696 11.1161 13.4115C11.8658 13.1372 12.6475 13 13.461 13C14.5138 13 15.4469 13.1694 16.2604 13.5083C17.0739 13.8471 17.72 14.3151 18.1985 14.9121C18.4218 15.1703 18.5255 15.4446 18.5096 15.735C18.4936 16.0093 18.358 16.2433 18.1028 16.4369C17.8476 16.6144 17.5445 16.6709 17.1936 16.6064C16.8426 16.5418 16.5475 16.3966 16.3083 16.1707C15.9095 15.7834 15.4788 15.5172 15.0162 15.372C14.5536 15.2268 14.0193 15.1541 13.4131 15.1541C12.7113 15.1541 12.1131 15.2752 11.6186 15.5172C11.1401 15.7592 10.9008 16.1142 10.9008 16.5822C10.9008 16.8726 10.9726 17.1389 11.1161 17.3809C11.2756 17.6068 11.5787 17.8166 12.0254 18.0102C12.472 18.1877 13.126 18.3652 13.9874 18.5427C15.7899 18.8977 17.0341 19.4059 17.72 20.0675C18.4218 20.713 18.7727 21.5117 18.7727 22.4637C18.7727 23.2059 18.5734 23.8756 18.1746 24.4726C17.7917 25.0696 17.2175 25.5456 16.4518 25.9006C15.7021 26.2556 14.761 26.4331 13.6285 26.4331Z" fill="#8F83F3"/>
<path d="M25.9728 26.3363C25.7176 26.3363 25.4783 26.2637 25.255 26.1185C25.0476 25.9571 24.9041 25.7635 24.8243 25.5376L21.2831 14.7911C21.1555 14.2909 21.1555 13.8875 21.2831 13.5809C21.4267 13.2582 21.7298 13.0968 22.1924 13.0968C22.4954 13.0968 22.7427 13.1856 22.9341 13.3631C23.1415 13.5244 23.3089 13.8068 23.4366 14.2102L26.0207 22.3669L28.4612 14.0166C28.541 13.7423 28.6766 13.5244 28.868 13.3631C29.0594 13.1856 29.3226 13.0968 29.6576 13.0968C29.9766 13.0968 30.2318 13.1856 30.4232 13.3631C30.6306 13.5244 30.7662 13.7423 30.83 14.0166L32.9834 22.5363L35.6154 14.2102C35.8387 13.4679 36.2534 13.0968 36.8596 13.0968C37.3062 13.0968 37.6093 13.2582 37.7688 13.5809C37.9283 13.8875 37.9203 14.2909 37.7449 14.7911L34.2037 25.5376C34.1399 25.7635 34.0043 25.9571 33.7969 26.1185C33.5896 26.2637 33.3503 26.3363 33.0791 26.3363C32.8239 26.3363 32.5846 26.2637 32.3613 26.1185C32.138 25.9571 31.9944 25.7635 31.9306 25.5376L29.5858 16.7516L27.1213 25.5376C27.0575 25.7635 26.9139 25.9571 26.6906 26.1185C26.4833 26.2637 26.244 26.3363 25.9728 26.3363Z" fill="#8F83F3"/>
<path d="M46.0048 26.4331C44.8404 26.4331 43.7956 26.1427 42.8704 25.5618C41.9452 24.9648 41.2114 24.166 40.6691 23.1656C40.1427 22.149 39.8795 21.0034 39.8795 19.7287C39.8795 18.4539 40.1666 17.3083 40.7409 16.2917C41.3311 15.2752 42.1207 14.4764 43.1096 13.8955C44.1146 13.2985 45.2391 13 46.4833 13C47.7276 13 48.8441 13.2985 49.8331 13.8955C50.8221 14.4764 51.6037 15.2752 52.178 16.2917C52.7682 17.3083 53.0633 18.4539 53.0633 19.7287V25.1261C53.0633 25.4811 52.9436 25.7796 52.7043 26.0217C52.481 26.2476 52.1939 26.3605 51.843 26.3605C51.4921 26.3605 51.197 26.2476 50.9577 26.0217C50.7344 25.7796 50.6227 25.4811 50.6227 25.1261V24.2306C50.0644 24.9083 49.3865 25.4488 48.5889 25.8522C47.8073 26.2395 46.9459 26.4331 46.0048 26.4331ZM46.4833 24.2548C47.2969 24.2548 48.0227 24.0611 48.6607 23.6739C49.2988 23.2705 49.8012 22.7299 50.1681 22.0522C50.535 21.3584 50.7184 20.5839 50.7184 19.7287C50.7184 18.8573 50.535 18.0828 50.1681 17.4051C49.8012 16.7113 49.2988 16.1707 48.6607 15.7834C48.0227 15.38 47.2969 15.1783 46.4833 15.1783C45.6858 15.1783 44.96 15.38 44.306 15.7834C43.6679 16.1707 43.1575 16.7113 42.7747 17.4051C42.4078 18.0828 42.2244 18.8573 42.2244 19.7287C42.2244 20.5839 42.4078 21.3584 42.7747 22.0522C43.1575 22.7299 43.6679 23.2705 44.306 23.6739C44.96 24.0611 45.6858 24.2548 46.4833 24.2548Z" fill="#8F83F3"/>
<path d="M59.0365 32C58.6856 32 58.3905 31.879 58.1512 31.6369C57.9279 31.411 57.8163 31.1206 57.8163 30.7656V19.7287C57.8322 18.4539 58.1273 17.3083 58.7016 16.2917C59.2758 15.2752 60.0574 14.4764 61.0464 13.8955C62.0354 13.2985 63.152 13 64.3962 13C65.6563 13 66.7809 13.2985 67.7699 13.8955C68.7588 14.4764 69.5405 15.2752 70.1147 16.2917C70.7049 17.3083 71 18.4539 71 19.7287C71 21.0034 70.7288 22.149 70.1865 23.1656C69.6601 24.166 68.9343 24.9648 68.0091 25.5618C67.084 26.1427 66.0392 26.4331 64.8747 26.4331C63.9336 26.4331 63.0642 26.2395 62.2667 25.8522C61.4851 25.4488 60.8151 24.9083 60.2568 24.2306V30.7656C60.2568 31.1206 60.1451 31.411 59.9218 31.6369C59.6985 31.879 59.4034 32 59.0365 32ZM64.3962 24.2548C65.2097 24.2548 65.9355 24.0611 66.5735 23.6739C67.2116 23.2705 67.714 22.7299 68.0809 22.0522C68.4637 21.3584 68.6552 20.5839 68.6552 19.7287C68.6552 18.8573 68.4637 18.0828 68.0809 17.4051C67.714 16.7113 67.2116 16.1707 66.5735 15.7834C65.9355 15.38 65.2097 15.1783 64.3962 15.1783C63.5986 15.1783 62.8728 15.38 62.2188 15.7834C61.5808 16.1707 61.0783 16.7113 60.7114 17.4051C60.3445 18.0828 60.1611 18.8573 60.1611 19.7287C60.1611 20.5839 60.3445 21.3584 60.7114 22.0522C61.0783 22.7299 61.5808 23.2705 62.2188 23.6739C62.8728 24.0611 63.5986 24.2548 64.3962 24.2548Z" fill="#8F83F3"/>
</g>
<defs>
<filter id="filter0_d" x="4" y="11" width="71" height="27" filterUnits="userSpaceOnUse" color-interpolation-filters="sRGB">
<feFlood flood-opacity="0" result="BackgroundImageFix"/>
<feColorMatrix in="SourceAlpha" type="matrix" values="0 0 0 0 0 0 0 0 0 0 0 0 0 0 0 0 0 0 127 0"/>
<feOffset dy="2"/>
<feGaussianBlur stdDeviation="2"/>
<feColorMatrix type="matrix" values="0 0 0 0 0 0 0 0 0 0 0 0 0 0 0 0 0 0 0.6 0"/>
<feBlend mode="normal" in2="BackgroundImageFix" result="effect1_dropShadow"/>
<feBlend mode="normal" in="SourceGraphic" in2="effect1_dropShadow" result="shape"/>
</filter>
</defs>
</svg>
